<svg width="172" height="63" viewBox="0 0 172 63" fill="none" xmlns="http://www.w3.org/2000/svg">
<path d="M172.039 43.431L171.848 43.641V44.921L172.044 45.196H171.296L171.511 44.921V43.688L170.839 45.225H170.815L170.152 43.897V44.944L170.358 45.196H169.83L170.025 44.944V43.7L169.807 43.43H170.32L170.936 44.713L171.497 43.429L172.039 43.431ZM169.012 43.524V44.92L169.203 45.196H168.479L168.666 44.919V43.529H168.413L168.077 44.005H168.054V43.429H169.624V44.005H169.605L169.268 43.524H169.012ZM3.23204 34.434C2.10804 33.559 1.27204 32.36 0.385041 31.246C0.223041 31.042 0.198041 30.759 0.109041 30.514C0.0690413 30.405 0.0190413 30.298 4.12986e-05 30.184C-0.0169587 30.083 -0.0659587 29.954 4.12986e-05 29.876C0.338041 29.466 0.678041 29.008 1.16004 28.784C2.36004 28.227 3.04004 28.167 4.08304 28.162C4.14604 28.162 4.20804 28.16 4.27004 28.165C4.27604 28.165 4.27404 28.175 4.27604 28.18L4.28504 28.202C4.29104 28.22 4.31204 28.237 4.30504 28.254C4.28704 28.288 4.24904 28.307 4.22104 28.332C4.16404 28.384 4.11004 28.437 4.05104 28.485C3.82204 28.665 3.58804 28.837 3.35804 29.013C2.95404 29.323 2.53604 29.617 2.14504 29.944C2.02804 30.043 1.88204 30.14 1.84104 30.288C1.78804 30.476 1.82104 30.688 1.88704 30.871C1.92504 30.976 2.04204 31.033 2.13304 31.095C3.779 32.2188 5.43541 33.3271 7.10204 34.42C7.15804 34.458 7.23304 34.454 7.29904 34.472C7.37304 34.492 7.44904 34.557 7.52104 34.531C7.66704 34.477 7.78404 34.361 7.89304 34.251C7.91604 34.227 7.89304 34.184 7.89404 34.151L7.89604 34.077L7.90304 32.49C7.90804 30.906 7.91604 29.32 7.91904 27.736C7.92604 24.24 7.92904 20.744 7.93404 17.247L7.93904 13.051L7.93604 12.747C7.92904 12.017 7.97104 11.991 7.26404 10.997C6.98404 10.605 6.54404 10.356 6.20404 10.012C6.15404 9.96 6.13404 9.884 6.10104 9.818C6.08604 9.786 6.05104 9.753 6.06304 9.72C6.07504 9.688 6.12304 9.685 6.15504 9.67C6.22104 9.641 6.28504 9.597 6.35804 9.59C6.44104 9.583 7.24804 9.607 7.39804 9.607C8.08204 9.61 8.76704 9.608 9.45104 9.608C10.832 9.608 12.214 9.592 13.595 9.614C13.709 9.616 13.82 9.654 13.931 9.677C13.982 9.688 14.061 9.67 14.082 9.717C14.105 9.767 14.042 9.817 14.017 9.866C13.965 9.972 13.925 10.086 13.854 10.181C13.632 10.477 13.379 10.749 13.141 11.032C12.898 11.322 12.752 11.359 12.738 12.012C12.634 16.808 12.738 21.607 12.739 26.405C12.739 28.809 12.554 31.22 12.739 33.618C12.759 33.855 13.112 34.118 13.329 34.02C14.548 33.475 15.599 32.61 16.694 31.847C17.148 31.531 17.544 31.14 17.969 30.787C18.464 30.375 19.012 30.018 19.455 29.551C19.619 29.38 19.752 29.144 19.755 28.907C19.852 22.41 19.831 15.912 19.755 9.414C19.747 8.768 18.77 7.961 18.518 7.682L18.354 7.499C18.341 7.484 18.326 7.471 18.314 7.455C18.267 7.39535 18.2214 7.33466 18.177 7.273C18.1722 7.26609 18.1688 7.25827 18.167 7.25C18.143 7.136 18.039 7.009 18.097 6.907C18.157 6.802 18.314 6.785 18.435 6.776C19.071 6.726 19.711 6.748 20.349 6.732C21.418 6.704 22.487 6.695 23.555 6.646C24.133 6.619 24.708 6.56 25.283 6.502L26.091 6.422C26.1774 6.41254 26.2642 6.40919 26.351 6.412C26.434 6.417 26.516 6.437 26.598 6.45C26.634 6.456 26.691 6.436 26.705 6.469C26.723 6.509 26.679 6.553 26.662 6.594C26.626 6.679 26.605 6.774 26.547 6.846C26.475 6.936 24.67 8.621 24.647 9.5C24.552 13.264 24.637 17.03 24.628 20.794C24.627 21.7 24.622 22.606 24.618 23.511C24.616 24.305 24.483 25.109 24.609 25.892C24.64 26.082 24.869 26.247 25.061 26.247C25.928 26.25 26.774 25.961 27.638 25.903C30.102 25.74 32.571 25.689 35.038 25.585C35.101 25.583 35.165 25.585 35.229 25.585C35.435 25.583 35.649 25.558 35.845 25.618C36.005 25.668 36.205 25.745 36.259 25.903C36.306 26.043 36.188 26.207 36.079 26.308C35.493 26.853 33.17 28.053 33.209 29.508C33.243 30.805 33.623 32.07 33.831 33.352C33.901 33.782 34.002 34.207 34.088 34.635L34.748 37.902C34.786 38.097 34.886 38.636 34.994 38.748C35.175 38.938 35.448 39.254 35.678 39.131C38.165 37.799 37.434 36.483 37.411 33.866C37.387 31.124 36.975 20.832 36.937 20.043C36.919 19.657 36.841 19.277 36.787 18.896C36.772 18.788 36.692 18.224 36.586 18.153C36.323 17.977 36.006 17.84 35.69 17.84C35.488 17.84 35.335 18.034 35.174 18.156C34.351 18.779 33.436 19.309 32.741 20.073C32.407 20.44 32.285 20.966 32.177 21.45C32.097 21.808 32.245 22.187 32.191 22.55C32.171 22.688 32.093 22.855 31.961 22.9C31.837 22.942 31.669 22.861 31.601 22.75C30.856 21.562 29.868 20.439 29.564 19.07C29.135 17.145 30.762 16.366 31.97 15.635C32.758 15.158 33.58 14.74 34.387 14.295C34.695 14.126 35.002 13.956 35.313 13.793C35.395 13.75 35.482 13.714 35.566 13.675C35.569 13.674 35.572 13.671 35.574 13.672C35.984 13.763 36.427 13.761 36.801 13.951C37.048 14.077 37.166 14.368 37.349 14.576L38.579 15.972L38.862 16.292L38.864 16.294C39.23 16.694 39.717 17.008 39.962 17.492C40.639 18.827 41.322 20.204 41.593 21.676C41.878 23.226 41.595 24.827 41.599 26.403C41.599 26.623 41.603 26.843 41.607 27.063C41.645 29.716 41.65 32.37 41.726 35.022C41.743 35.636 41.646 36.294 41.888 36.859C42.042 37.219 42.491 37.36 42.818 37.575C42.863 37.605 42.926 37.574 42.979 37.575C43.08 37.575 43.181 37.569 43.282 37.58C43.346 37.587 43.407 37.612 43.469 37.63C43.495 37.638 43.536 37.631 43.546 37.656C43.557 37.687 43.526 37.72 43.513 37.75C43.486 37.81 43.47 37.877 43.426 37.925C43.262 38.109 43.07 38.267 42.894 38.438C42.642 38.683 42.384 38.923 42.14 39.175C41.864 39.459 41.603 39.756 41.334 40.047C41.086 40.315 40.847 40.593 40.59 40.853C40.069 41.383 39.224 42.498 38.242 42.342C37.854 42.28 37.556 41.932 37.297 41.636C37.172 41.494 37.194 41.273 37.144 41.091C37.06 40.784 37.087 40.555 36.584 40.541C36.403 40.537 36.251 40.688 36.092 40.776C35.442 41.134 35.079 41.474 34.355 41.816C34.002 41.983 33.62 42.329 33.251 42.203C32.522 41.957 32.001 41.306 31.407 40.817C31.362 40.78 31.377 40.706 31.364 40.65C31.072 39.442 30.751 38.24 30.491 37.025C30.119 35.291 29.433 33.578 29.467 31.805C29.491 30.609 30.11 29.481 30.659 28.417C30.829 28.09 31.568 27.676 31.916 27.304C31.973 27.244 32.018 27.174 32.067 27.107C32.09 27.075 32.119 27.047 32.132 27.009C32.136 26.999 32.119 26.989 32.112 26.979C32.098 26.956 32.096 26.913 32.068 26.909C31.991 26.899 31.914 26.932 31.837 26.945C31.646 26.977 31.454 27.005 31.264 27.045C30.044 27.304 25.749 27.077 24.849 29.365C24.673 29.814 24.795 30.328 24.794 30.81C24.776 37.82 24.596 44.832 24.793 51.839C24.8215 53.0025 25.054 54.1519 25.48 55.235C25.733 55.866 26.344 56.285 26.783 56.806C26.808 56.836 26.843 56.856 26.87 56.882C27.065 57.069 27.294 57.226 27.452 57.445C27.668 57.745 27.666 58.06 27.217 58.135C26.964 58.178 26.703 58.109 26.45 58.064C26.213 58.022 25.987 57.931 25.753 57.875C25.323 57.772 24.899 57.625 24.458 57.588C21.7 57.359 21.172 57.444 18.826 57.568C18.499 57.586 18.172 57.624 17.845 57.637C17.642 57.645 17.412 57.731 17.237 57.628C17.065 57.528 16.913 57.307 16.94 57.109C16.97 56.899 17.229 56.798 17.374 56.643C17.378 56.638 17.383 56.635 17.388 56.631C17.529 56.517 18.287 55.916 18.32 55.857C18.829 54.954 19.323 54.025 19.62 53.031C19.863 52.221 19.901 51.356 19.92 50.511C20.01 46.311 19.938 42.111 19.944 37.911C19.947 36.589 19.951 35.266 19.946 33.944C19.946 33.94 20.09 32.933 19.569 33.134C19.129 33.303 18.806 33.694 18.396 33.926C16.8527 34.8062 15.2893 35.6507 13.707 36.459C13.204 36.715 12.995 36.454 12.754 36.983C12.71 37.08 12.742 37.195 12.742 37.301C12.738 38.611 12.742 39.921 12.742 41.231C12.741 44.632 12.585 48.038 12.738 51.436C12.792 52.648 13.607 53.196 14.283 54.044C14.341 54.116 14.368 54.208 14.407 54.292C14.425 54.33 14.477 54.375 14.454 54.411C14.431 54.448 14.367 54.421 14.323 54.423C14.23 54.427 14.137 54.443 14.046 54.428C13.692 54.373 13.345 54.284 12.993 54.216C12.361 54.094 11.733 53.944 11.095 53.858C10.443 53.771 9.78404 53.749 9.12804 53.695H9.12404C8.99404 53.688 8.86404 53.68 8.73304 53.675C8.11304 53.649 7.49204 53.625 6.87104 53.601L6.04404 53.573H6.03404C5.98804 53.573 5.94604 53.58 5.90004 53.564C5.82004 53.538 5.74404 53.497 5.66704 53.464L5.61704 53.44C5.60104 53.433 5.56904 53.436 5.57004 53.42C5.57004 53.38 5.60004 53.349 5.62004 53.316C5.66004 53.246 5.68804 53.166 5.74604 53.11C6.26604 52.62 6.89304 52.238 7.34904 51.688C7.63804 51.34 7.91904 50.917 7.93904 50.464C8.12104 46.134 8.08504 41.793 7.94704 37.46C7.93904 37.191 7.72904 36.932 7.50304 36.787C6.13504 35.909 4.51404 35.432 3.23204 34.434ZM95.46 23.15C95.38 23.025 95.272 22.8 95.571 38.914C95.571 38.952 95.493 38.95 95.459 38.934C95.427 38.919 95.428 38.871 95.414 38.839C95.38 38.764 95.342 38.69 95.314 38.613C95.214 38.341 95.124 38.066 95.03 37.793C94.851 37.274 94.69 36.749 94.483 36.241C94.363 35.947 94.197 35.674 94.053 35.391C94.039 35.366 94.031 35.338 94.01 35.318C93.961 35.272 93.904 35.236 93.848 35.198C93.821 35.181 93.794 35.144 93.763 35.152C93.73 35.161 93.724 35.207 93.708 35.236C93.678 35.296 93.642 35.353 93.622 35.416C93.61 35.455 93.615 35.496 93.612 35.536C93.59 35.958 93.549 36.38 93.549 36.803C93.552 39.235 93.595 41.666 93.624 44.097C93.629 44.562 93.642 45.027 93.652 45.491L93.667 46.153L93.668 46.353C93.668 46.38 93.682 46.411 93.668 46.434C93.653 46.459 93.622 46.474 93.593 46.479C93.58 46.481 93.573 46.459 93.563 46.451L93.523 46.414C93.475 46.366 93.422 46.322 93.383 46.267C93.281 46.127 93.195 45.976 93.101 45.83C92.951 45.604 92.486 44.797 92.164 44.671C92.031 44.619 91.821 44.676 91.756 44.803C91.604 45.103 91.611 45.463 91.59 45.799C91.509 47.059 91.49 48.323 91.448 49.585C91.39 51.348 91.342 53.111 91.291 54.874L91.241 56.614L91.183 58.672C91.154 59.674 91.148 60.676 91.097 61.677C91.086 61.9 91.019 62.561 90.998 62.339C89.905 50.598 88.699 38.864 87.878 27.1C87.853 26.753 88.346 27.617 88.59 27.867C88.91 28.195 89.19 28.575 89.57 28.833C89.655 28.891 89.568 28.628 89.562 28.526C89.553 28.358 89.557 28.189 89.529 28.023C89.064 25.287 88.571 22.556 88.085 19.824C88.029 19.511 87.965 19.2 87.905 18.888C87.86 18.66 87.808 18.434 87.77 18.206C87.758 18.13 87.758 18.053 87.753 17.976C87.751 17.943 87.74 17.908 87.75 17.876C87.756 17.86 87.78 17.859 87.794 17.849C87.807 17.842 87.819 17.819 87.832 17.826C87.85 17.837 87.933 17.918 87.984 17.962L88.311 18.252L88.374 18.306C88.412 18.34 88.45 18.375 88.489 18.407C88.652 18.539 88.773 18.764 88.979 18.799C89.416 18.874 89.442 18.68 89.439 18.474C89.431 17.813 89.459 17.15 89.409 16.491C89.316 15.253 89.145 14.021 89.013 12.787C88.965 12.344 88.913 11.901 88.863 11.457C88.74 10.364 88.619 9.27 88.497 8.177C88.4055 7.35699 88.3138 6.53699 88.222 5.717L88.195 5.482C88.153 5.087 88.187 4.677 88.071 4.297C87.717 3.144 86.741 2.689 85.858 1.924C85.763 1.842 85.679 1.746 85.591 1.655C85.537 1.6 85.43 1.564 85.433 1.487C85.436 1.429 85.545 1.456 85.601 1.443C85.683 1.423 85.764 1.397 85.848 1.39C87.04 1.3 88.235 1.23 89.428 1.152C91.131 1.041 92.834 0.931001 94.538 0.824001C95.334 0.774001 96.131 0.728999 96.928 0.681999C97.547 0.644999 98.166 0.615998 98.783 0.571998C98.858 0.566998 98.931 0.547001 99.005 0.533001L99.04 0.525001L99.066 0.52C99.082 0.516 99.098 0.509998 99.114 0.509998C99.404 0.506998 99.78 0.302998 99.983 0.509998C100.781 1.326 101.258 2.404 101.896 3.352C102.809 4.708 103.805 6.012 104.634 7.42C104.846 7.781 104.942 8.207 104.998 8.622C105.075 9.188 105.024 9.764 105.028 10.336C105.038 11.829 105.092 13.323 105.038 14.816C104.995 16.016 104.837 17.209 104.736 18.406V18.408C104.685 18.89 104.636 19.371 104.583 19.853C104.554 20.112 104.521 20.371 104.491 20.63C104.434 21.115 104.147 21.76 104.779 22.068C105.063 22.206 105.405 22.154 105.718 22.196C105.958 22.228 106.201 22.249 106.44 22.289C106.752 22.343 107.055 22.483 107.372 22.479C107.44 22.4742 107.505 22.4531 107.563 22.4176C107.621 22.3821 107.67 22.3332 107.705 22.275C107.793 22.128 107.766 21.937 107.796 21.769C107.901 21.176 107.856 20.918 108.33 20.447C108.522 20.257 108.787 20.155 109.016 20.011C109.701 19.582 110.381 19.145 111.072 18.725C111.856 18.249 112.65 17.789 113.44 17.323C114.51 16.691 114.7 16.268 116.032 16.81C116.332 16.932 116.49 17.266 116.717 17.496C117.31 18.098 117.922 18.681 118.49 19.306C118.925 19.785 119.312 20.305 119.721 20.806C119.757 20.85 119.808 20.887 119.826 20.941C119.966 21.355 120.131 21.767 120.194 22.2C120.286 22.837 120.257 23.485 120.287 24.128C120.349 25.488 120.428 26.848 120.47 28.21C120.498 29.115 120.533 31.214 120.539 32.638L120.548 35.093C120.55 35.457 121.13 39.345 119.847 40.185C117.985 41.404 115.928 42.315 113.862 43.142C113.064 43.461 112.017 42.008 111.779 41.769C110.612 40.6 109.031 39.156 108.101 37.714C107.908 37.4271 107.793 37.0955 107.766 36.751C107.57 32.898 107.84 29.021 107.465 25.181C107.42 24.717 106.931 24.381 106.535 24.135C106.256 23.962 105.885 24.043 105.559 23.999C105.218 23.953 104.182 23.539 103.696 23.953C103.552 24.076 103.457 24.248 103.338 24.395C103.228 24.532 103.147 24.699 103.007 24.806C102.423 25.252 101.854 25.743 101.183 26.041C100.278 26.443 99.315 26.75 98.334 26.881C98.043 26.921 97.704 26.765 97.524 26.531C96.719 25.485 96.17 24.264 95.46 23.15ZM111.433 21.73C111.445 21.808 111.454 21.886 111.464 21.964C111.487 22.144 111.51 22.324 111.549 22.501C111.6 22.732 111.759 22.816 111.986 22.721C112.092 22.676 112.198 22.626 112.293 22.561C113.518 21.747 114.354 20.637 114.784 19.227C114.802 19.167 114.79 19.1 114.779 19.031C114.773 18.9982 114.768 18.9652 114.765 18.932C114.735 18.937 114.702 18.939 114.669 18.942C114.599 18.946 114.528 18.95 114.478 18.985C113.599 19.61 112.724 20.244 111.852 20.88C111.57 21.088 111.412 21.364 111.433 21.73ZM113.174 23.743C112.73 23.819 112.288 23.895 111.845 23.977C111.341 24.069 111.193 24.247 111.18 24.761C111.177 24.878 111.184 24.996 111.19 25.113C111.195 25.197 111.199 25.283 111.2 25.367C111.241 27.75 111.281 30.132 111.317 32.514C111.34 34.114 111.357 35.714 111.375 37.312V37.319C111.379 37.845 111.489 38.338 111.859 38.735C112.299 39.207 112.742 39.678 113.196 40.138C113.47 40.418 113.653 40.447 114.001 40.274C114.263 40.144 114.522 40.009 114.781 39.874C115.18 39.667 115.58 39.459 115.987 39.27C116.556 39.006 116.77 38.563 116.77 37.973L116.771 35.542H116.747C116.747 35.254 116.75 34.966 116.753 34.679C116.761 34.05 116.768 33.421 116.74 32.793C116.637 30.418 116.505 28.044 116.373 25.671V25.659C116.347 25.2605 116.31 24.8627 116.264 24.466V24.464L116.208 23.93C116.156 23.375 115.987 23.248 115.432 23.346L114.781 23.462L114.774 23.463H114.77L114.38 23.533L113.867 23.623L113.177 23.743H113.174ZM99.006 22.413C98.506 22.286 98.001 22.174 97.526 22.069L96.979 21.948C96.681 21.945 96.576 22.083 96.695 22.264C97.067 22.824 97.452 23.377 97.851 23.918C97.999 24.12 98.217 24.101 98.372 23.916C98.652 23.585 98.919 23.244 99.167 22.89C99.314 22.68 99.249 22.475 99.006 22.413ZM95.019 20.322C96.2235 20.1826 97.4303 20.0652 98.639 19.97C99.244 19.923 99.427 19.767 99.404 19.15L99.367 18.282C99.347 17.82 99.327 17.358 99.31 16.896C99.236 14.73 99.164 12.564 99.093 10.397V10.387L99.092 10.376L99.021 8.223C99.007 7.84 98.995 7.458 98.983 7.076C98.959 6.311 98.935 5.546 98.903 4.782C98.878 4.225 98.833 4.197 98.262 4.174L96.759 4.114H96.751C96.079 4.088 95.407 4.062 94.735 4.034C94.264 4.014 94.236 4.03 94.243 4.499C94.254 5.312 94.268 6.126 94.282 6.939V6.942C94.305 8.346 94.329 9.75 94.342 11.154C94.352 12.409 94.35 13.664 94.347 14.92L94.344 16.624H94.474V19.864C94.474 20.384 94.492 20.382 94.986 20.325L95.019 20.322ZM82.21 21.496V21.497C81.5062 23.176 80.7845 24.8474 80.045 26.511C78.615 29.701 77.179 32.891 75.675 36.049C74.427 38.663 72.976 41.169 71.525 43.676C71.137 44.348 70.747 45.021 70.362 45.696L69.636 46.963V46.965L69.63 46.975C68.848 48.338 68.067 49.702 67.303 51.075C66.984 51.648 66.615 51.942 65.905 51.855C64.929 51.736 63.95 51.658 62.971 51.58C62.5085 51.5438 62.0452 51.5055 61.583 51.465L60.534 51.376C59.5956 51.3044 58.6588 51.2138 57.724 51.104C56.8397 50.9885 55.9575 50.8565 55.078 50.708C54.636 50.637 54.194 50.565 53.752 50.498C51.872 50.211 50.067 49.685 48.368 48.822C47.9031 48.5891 47.448 48.3369 47.004 48.066C46.58 47.803 46.523 47.613 46.731 47.172C47.167 46.248 47.618 45.331 48.081 44.422C48.189 44.212 48.351 44.017 48.526 43.856C49.042 43.377 49.574 42.916 50.106 42.455C50.382 42.218 50.716 42.12 51.073 42.131C52.297 42.171 53.521 42.217 54.743 42.276C54.8455 42.29 54.9437 42.3258 55.031 42.381C55.075 42.403 55.119 42.426 55.162 42.445C55.13 42.475 55.1 42.508 55.069 42.541C54.999 42.617 54.928 42.693 54.841 42.734C53.936 43.165 53.028 43.587 52.114 43.999C51.81 44.135 51.564 44.321 51.431 44.629L51.268 45.002C51.0166 45.5635 50.7779 46.1307 50.552 46.703C50.364 47.188 50.558 47.508 51.069 47.566C51.831 47.652 52.595 47.723 53.358 47.795H53.361C53.729 47.829 54.098 47.864 54.466 47.9L56.176 48.07H56.191C57.324 48.183 58.457 48.295 59.591 48.403C60.47 48.488 61.349 48.567 62.228 48.646L62.243 48.648L63.538 48.765C64.041 48.812 64.398 48.629 64.647 48.166C65.926 45.796 67.212 43.431 68.499 41.066L70.219 37.901C70.429 37.513 70.49 37.103 70.397 36.668C69.805 33.908 69.214 31.148 68.625 28.386C68.277 26.756 67.931 25.126 67.592 23.493C67.495 23.025 67.317 22.613 66.936 22.305C66.8587 22.2465 66.7906 22.1767 66.734 22.098C66.689 22.03 66.657 21.953 66.624 21.876C66.6112 21.8445 66.5979 21.8131 66.584 21.782C66.616 21.767 66.647 21.749 66.679 21.732C66.746 21.694 66.812 21.656 66.882 21.65C67.5355 21.5946 68.1895 21.5466 68.844 21.506C69.384 21.473 69.924 21.446 70.465 21.418L70.768 21.402C70.9357 21.3931 71.1034 21.3841 71.271 21.375H71.321L71.371 21.374C71.462 21.371 71.555 21.369 71.647 21.38C71.6962 21.3881 71.7436 21.4046 71.787 21.429C71.807 21.439 71.827 21.448 71.848 21.456C71.843 21.4675 71.8384 21.4792 71.834 21.491L71.823 21.523C71.8108 21.5695 71.7887 21.6129 71.758 21.65L71.732 21.676C71.61 21.796 71.485 21.918 71.341 22.008C70.925 22.262 70.833 22.63 70.914 23.078C71.0592 23.8841 71.2009 24.6907 71.339 25.498L71.503 26.437C71.862 28.479 72.22 30.52 72.582 32.56C72.622 32.797 72.681 33.032 72.754 33.259C72.817 33.455 72.95 33.463 73.073 33.309C73.155 33.202 73.2226 33.0846 73.274 32.96L73.694 31.945C75.143 28.448 76.591 24.952 77.716 21.331C77.755 21.206 77.787 21.08 77.819 20.954L77.829 20.913C77.916 20.571 77.833 20.285 77.556 20.058C77.273 19.824 76.993 19.588 76.717 19.346C76.6783 19.3059 76.6471 19.2592 76.625 19.208C76.6132 19.1842 76.6006 19.1609 76.587 19.138C76.6002 19.1335 76.6132 19.1285 76.626 19.123L76.665 19.105C76.7168 19.0747 76.7751 19.0575 76.835 19.055C77.899 19.111 78.961 19.175 80.023 19.237L80.33 19.255L80.9 19.287C81.432 19.317 81.964 19.347 82.495 19.392C82.942 19.431 83.025 19.573 82.853 19.98C82.638 20.484 82.425 20.988 82.212 21.492L82.21 21.496ZM139.842 18.453C139.712 18.561 139.593 18.683 139.482 18.811C139.466 18.829 139.472 18.858 139.469 18.882C139.454 19.002 139.427 19.12 139.428 19.24C139.439 21.295 139.475 23.35 139.504 25.404C139.518 26.426 139.539 27.449 139.557 28.471V28.487C139.577 29.687 139.6 30.887 139.618 32.087C139.654 34.536 139.7 38.897 139.738 41.26C139.748 41.885 139.768 42.51 139.783 43.135C139.809 44.241 139.487 45.458 140.458 46.292C140.911 46.68 141.508 46.858 142.034 47.141C142.484 47.384 142.884 47.764 143.384 47.871C144.158 48.036 144.232 47.896 144.49 47.584L144.636 47.407C144.874 47.115 145.248 46.893 145.349 46.53C145.417 46.283 145.306 45.928 145.078 45.812C144.578 45.556 143.968 45.631 143.412 45.542C143.007 45.477 142.599 45.426 142.196 45.347C142.046 45.317 141.891 45.287 141.756 45.216C141.688 45.18 141.657 45.098 141.612 45.036C141.59 45.006 141.547 44.978 141.553 44.941C141.559 44.906 141.608 44.898 141.638 44.881C141.701 44.844 141.759 44.786 141.832 44.781C142.207 44.756 142.584 44.779 142.96 44.794C144.492 44.856 146.024 44.918 147.554 45.014C147.678 45.022 147.796 45.072 147.916 45.104C147.933 45.108 147.949 45.116 147.966 45.121L148.012 45.136C148.036 45.144 148.084 45.133 148.084 45.158C148.084 45.193 148.036 45.208 148.012 45.234L147.968 45.284C147.886 45.376 147.784 45.449 147.694 45.534C147.327 45.881 146.914 46.186 146.598 46.581C146.122 47.177 145.756 47.852 145.335 48.488L145.333 48.49C145.206 48.681 145.083 48.876 144.951 49.063C144.856 49.197 144.798 49.38 144.652 49.455C144.387 49.59 144.072 49.731 143.784 49.658C143.186 49.507 142.682 49.104 142.136 48.818C141.452 48.459 140.776 48.088 140.095 47.724C138.692 46.977 137.189 46.396 135.885 45.488C135.497 45.217 135.241 44.738 135.146 44.274C134.983 43.476 135.146 42.644 135.138 41.829C135.12 39.9716 135.099 38.1143 135.074 36.257C135.057 34.96 135.035 33.664 135.016 32.367L134.99 30.657V30.647C134.96 28.774 134.932 26.902 134.899 25.029C134.87 23.398 134.836 21.767 134.804 20.136C134.798 19.81 134.797 19.483 134.784 19.157C134.779 19.032 134.821 18.887 134.75 18.783C134.246 18.049 133.908 18.285 133.042 18.264C132.827 18.259 132.612 18.257 132.397 18.25C132.253 18.245 131.882 18.26 132.049 17.888C132.053 17.879 133.229 16.485 133.278 16.428C134.198 15.323 135.998 13.128 136.552 12.378C137.045 11.708 137.46 10.986 137.906 10.285C138.111 9.961 138.302 9.628 138.505 9.303C138.576 9.189 138.654 9.079 138.728 8.968L138.73 8.965C138.773 8.908 138.805 8.841 138.851 8.785C138.856 8.78 138.867 8.789 138.875 8.791L138.903 8.797C138.92 8.8 138.943 8.794 138.954 8.807C138.972 8.831 138.97 8.866 138.979 8.894L138.98 8.895C138.995 8.962 139.02 9.027 139.023 9.095C139.057 9.796 139.07 10.499 139.093 11.201L139.094 11.236C139.134 12.421 139.164 13.606 139.215 14.791C139.229 15.104 139.264 15.416 139.288 15.728C139.296 15.808 139.27 15.902 139.312 15.971C139.613 16.474 139.758 16.373 140.343 16.403C140.493 16.411 142.255 16.433 142.281 16.443C142.559 16.552 142.742 16.834 142.905 17.084C142.963 17.173 142.905 17.296 142.906 17.402C142.907 17.792 142.977 17.922 142.489 18.201C142.345 18.283 142.159 18.228 141.993 18.242C141.563 18.279 141.133 18.312 140.703 18.354C140.445 18.379 140.188 18.412 139.931 18.442C139.901 18.446 139.865 18.434 139.842 18.453ZM128.389 29.94C128.354 31.1056 128.32 32.2713 128.289 33.437C128.255 34.752 128.227 36.067 128.2 37.381L128.172 38.701L128.143 40.098V40.105C128.12 41.295 128.096 42.486 128.066 43.677C128.06 43.8162 128.084 43.955 128.137 44.0838C128.19 44.2125 128.271 44.328 128.374 44.422C128.89 44.9342 129.402 45.4496 129.912 45.968L130.476 46.538L130.514 46.575C130.55 46.61 130.586 46.645 130.615 46.684L130.641 46.718C130.748 46.858 130.875 47.023 130.718 47.162C130.612 47.256 130.365 47.27 130.22 47.216C130.026 47.143 129.851 47.019 129.678 46.896L129.616 46.853L129.586 46.832L129.556 46.812L128.006 45.736C126.93 44.988 125.855 44.24 124.771 43.506C124.353 43.225 124.19 42.876 124.192 42.394C124.195 41.586 124.191 40.779 124.187 39.971L124.182 38.601L124.166 30.687L124.159 26.585L124.15 22.281L124.136 15.844C124.136 15.719 124.132 15.592 124.11 15.469C124.048 15.133 123.909 14.996 123.568 14.979C122.994 14.949 122.419 14.926 121.844 14.902H121.839C121.49 14.888 121.142 14.874 120.793 14.858C120.61 14.8515 120.429 14.8342 120.248 14.806C120.186 14.7917 120.128 14.7674 120.074 14.734L120.059 14.726L120.04 14.716C120.026 14.7077 120.011 14.7001 119.996 14.693C120.011 14.665 120.023 14.635 120.036 14.605C120.064 14.54 120.091 14.475 120.139 14.432C120.353 14.234 120.572 14.042 120.791 13.848C121.1 13.575 121.409 13.301 121.708 13.017L121.776 12.952C123.478 11.331 125.181 9.709 126.86 8.062C127.187 7.742 127.47 7.376 127.753 7.012C127.867 6.864 127.982 6.717 128.099 6.572C128.168 6.488 128.226 6.395 128.284 6.302L128.367 6.172L128.441 6.212L128.522 6.255C128.529 6.299 128.538 6.343 128.547 6.386C128.567 6.485 128.588 6.583 128.589 6.682C128.602 7.451 128.612 8.219 128.622 8.987C128.633 9.811 128.644 10.634 128.658 11.457C128.671 12.28 128.831 12.432 129.647 12.447L130.084 12.454C130.363 12.457 130.642 12.46 130.921 12.47C131.464 12.49 131.62 12.637 131.65 13.181C131.668 13.511 131.668 13.843 131.669 14.175V14.279C131.669 14.547 131.528 14.692 131.261 14.705C130.683 14.732 130.106 14.758 129.528 14.775C129.1 14.788 128.816 14.885 128.802 15.422C128.787 16.108 128.764 16.794 128.74 17.479C128.724 17.95 128.708 18.421 128.694 18.892L128.568 23.537L128.566 23.619L128.461 27.48C128.439 28.299 128.414 29.118 128.39 29.936L128.389 29.94ZM157.254 44.044C157.277 44.0271 157.301 44.0127 157.327 44.001C158.799 43.336 159.549 42.129 159.89 40.611C160.078 39.773 160.055 38.928 160.031 38.083L160.028 37.973L160.024 37.829L160.02 37.643C159.988 36.118 159.956 34.595 159.929 33.071L159.866 29.391V29.381L159.813 26.243C159.781 24.447 159.746 22.653 159.712 20.857L159.71 20.775C159.71 20.6781 159.704 20.5813 159.694 20.485C159.615 19.904 159.528 19.813 158.951 19.711C158.184 19.575 158.161 19.508 158.666 18.907C160.011 17.302 161.356 15.699 162.703 14.095C162.789 13.992 162.88 13.89 162.983 13.803C163.218 13.606 163.369 13.658 163.41 13.961C163.478 14.457 163.543 14.955 163.583 15.454C163.645 16.251 163.837 16.353 164.519 15.923L164.625 15.856L164.759 15.77L164.891 15.686C165.271 15.443 165.651 15.201 166.04 14.974C166.475 14.719 166.687 14.791 166.919 15.248L168.719 18.818L168.73 18.84L169.794 20.953C169.977 21.314 170.067 21.691 170.017 22.094C170.006 22.1961 169.967 22.2932 169.905 22.375C168.84 23.6995 167.642 24.9115 166.33 25.992C166.27 26.04 166.207 26.087 166.139 26.123C165.914 26.243 165.739 26.159 165.752 25.903C165.76 25.711 165.826 25.505 165.919 25.333C166.088 25.021 166.29 24.725 166.492 24.431C166.742 24.068 166.779 23.694 166.639 23.278C166.33 22.3623 166.023 21.4456 165.72 20.528V20.526L165.719 20.524L165.718 20.522L165.332 19.36C165.189 18.934 164.902 18.721 164.528 18.763C164.176 18.801 163.877 19.103 163.856 19.519C163.831 20.1263 163.824 20.7343 163.837 21.342C163.844 21.887 163.856 22.433 163.868 22.979C163.877 23.388 163.886 23.797 163.892 24.206L163.94 27.199V27.226C163.962 28.66 163.985 30.094 164.009 31.527L164.025 32.491C164.055 34.33 164.085 36.169 164.127 38.008L164.129 38.101C164.162 39.563 164.195 41.025 164.48 42.471C164.747 43.82 165.526 44.76 166.706 45.407L167.099 45.621L167.355 45.759L167.321 45.87C163.855 45.781 160.474 45.173 157.149 44.219L157.141 44.172L157.133 44.135L157.196 44.088L157.254 44.044ZM148.45 27.178C148.142 27.152 148.016 27.255 148.002 27.566C147.988 27.836 147.991 28.106 147.994 28.376C147.996 28.491 147.997 28.607 147.997 28.723H148.004L148.052 30.598L148.053 30.605C148.098 32.388 148.144 34.171 148.198 35.954C148.222 36.744 148.26 37.534 148.344 38.318C148.372 38.574 148.522 38.852 148.693 39.053C149.185 39.6217 149.695 40.1756 150.22 40.714C150.346 40.845 150.592 41.044 150.665 41.004C150.823 40.913 150.96 40.705 151.012 40.518C151.329 39.388 151.633 38.254 151.938 37.12L152.088 36.56L152.299 35.778C152.437 35.267 152.575 34.756 152.728 34.249C152.757 34.154 152.851 34.019 152.926 34.01C153.01 34.001 153.138 34.095 153.195 34.178C153.739 34.9739 154.275 35.7756 154.802 36.583C155.064 36.985 155.05 37.377 154.758 37.79C153.794 39.1515 152.848 40.5259 151.921 41.913C151.576 42.433 151.163 42.653 150.541 42.579C150.086 42.526 149.627 42.495 149.169 42.463C148.848 42.441 148.527 42.419 148.208 42.39C147.753 42.348 147.393 42.128 147.122 41.753C146.825 41.34 146.525 40.929 146.226 40.518L146.225 40.517C145.588 39.642 144.951 38.767 144.334 37.877C144.137 37.5819 144.03 37.2358 144.027 36.881C144.049 35.073 144.101 33.264 144.153 31.455L144.179 30.519C144.206 29.54 144.238 28.562 144.269 27.584L144.322 25.924L144.359 24.719C144.396 23.569 144.432 22.419 144.461 21.269C144.476 20.62 144.689 20.096 145.179 19.635C146.013 18.85 146.828 18.042 147.642 17.235L147.643 17.234L147.646 17.23L147.649 17.228C147.99 16.889 148.331 16.551 148.674 16.214C148.708 16.18 148.744 16.147 148.78 16.115C149.407 15.565 149.601 15.547 150.306 15.992L151.033 16.449C151.934 17.015 152.834 17.579 153.721 18.167C153.973 18.334 154.235 18.592 154.331 18.865C154.776 20.119 155.199 21.38 155.622 22.641C155.811 23.206 156 23.771 156.191 24.334C156.376 24.879 156.303 25.355 155.952 25.828C155.645 26.241 155.362 26.673 155.079 27.104L155.077 27.106C154.937 27.319 154.797 27.533 154.654 27.744C154.201 28.414 154.004 28.496 153.228 28.306C152.501 28.129 151.774 27.948 151.046 27.766H151.044C150.408 27.607 149.771 27.448 149.133 27.292C148.909 27.2358 148.68 27.1977 148.45 27.178ZM148.159 24.028V24.619L148.16 24.721C148.161 25.197 148.245 25.317 148.71 25.417C149.063 25.492 149.42 25.547 149.777 25.604L149.934 25.629L150.204 25.671L150.496 25.718C151.117 25.818 151.739 25.918 152.363 25.997C152.868 26.062 152.975 25.913 152.79 25.445C152.52 24.755 152.239 24.069 151.952 23.385C151.676 22.723 151.397 22.061 151.118 21.4L151.114 21.39C150.721 20.457 150.329 19.525 149.942 18.59C149.7 18.008 149.346 18.075 148.937 18.213C148.525 18.353 148.366 18.676 148.351 19.086L148.167 24.027L148.159 24.028ZM45.919 14.468C45.68 14.446 45.441 14.428 45.203 14.408C44.913 14.386 44.623 14.364 44.333 14.334C44.256 14.326 44.182 14.286 44.108 14.247C44.074 14.228 44.04 14.21 44.005 14.195C44.025 14.165 44.045 14.132 44.062 14.099C44.0956 14.027 44.1432 13.9624 44.202 13.909C45.934 12.564 47.672 11.224 49.409 9.885L49.493 9.819C49.538 9.784 49.587 9.753 49.637 9.723C49.874 9.583 49.991 9.632 50.025 9.912C50.048 10.112 50.062 10.312 50.075 10.513L50.1 10.863C50.157 11.536 50.215 12.209 50.277 12.881C50.282 12.939 50.298 12.997 50.319 13.07C50.329 13.11 50.342 13.154 50.354 13.205C50.411 13.173 50.464 13.145 50.515 13.118C50.614 13.066 50.701 13.019 50.783 12.965C51.168 12.709 51.552 12.451 51.935 12.194C52.12 12.069 52.305 11.944 52.49 11.821C52.57 11.767 52.652 11.713 52.736 11.667C53.103 11.463 53.254 11.487 53.48 11.841C54.093 12.806 54.547 13.851 54.898 14.933C55.213 15.901 55.49 16.882 55.768 17.863L56.038 18.812C56.215 19.427 56.083 19.917 55.543 20.338C55.029 20.737 54.539 21.166 54.049 21.595C53.784 21.827 53.518 22.059 53.249 22.287C53.0982 22.4203 52.9274 22.5292 52.743 22.61C52.651 22.648 52.481 22.613 52.406 22.545C52.366 22.51 52.372 22.426 52.378 22.341C52.38 22.303 52.382 22.264 52.381 22.229C52.381 22.221 52.388 22.211 52.395 22.205C52.918 21.615 52.765 20.951 52.615 20.299L52.593 20.202C52.2296 18.6219 51.8586 17.0435 51.48 15.467L51.435 15.277C51.343 14.896 51.231 14.849 50.882 15.004C50.405 15.214 50.404 15.234 50.429 15.797C50.479 16.934 50.522 18.072 50.565 19.21L50.582 19.671C50.67 22.033 50.758 24.394 50.843 26.755C50.869 27.475 50.893 28.194 50.916 28.913V28.915L50.988 31.065C51.063 33.175 51.142 35.285 51.221 37.396C51.237 37.84 51.401 38.217 51.748 38.512C52.128 38.837 52.505 39.17 52.874 39.51C52.923 39.555 52.951 39.621 52.98 39.688C52.9927 39.7165 53.0057 39.7448 53.019 39.773C52.99 39.786 52.962 39.802 52.934 39.818C52.872 39.853 52.809 39.888 52.744 39.892C50.53 40.015 48.315 40.132 46.101 40.248H46.1L46.015 40.252L45.976 40.255C45.92 40.259 45.865 40.262 45.813 40.25C45.745 40.234 45.679 40.207 45.613 40.181L45.533 40.15C45.546 40.12 45.556 40.089 45.566 40.057C45.5813 39.9908 45.6106 39.9288 45.652 39.875C45.974 39.53 46.299 39.185 46.642 38.861C47.035 38.491 47.146 38.028 47.137 37.521C47.103 35.649 47.065 33.778 47.023 31.907C46.967 29.313 46.908 26.718 46.849 24.125C46.7812 21.1548 46.7036 18.1847 46.616 15.215C46.599 14.651 46.473 14.52 45.919 14.468ZM64.919 19.584C64.8836 19.5113 64.865 19.4317 64.8644 19.3508C64.8639 19.27 64.8816 19.1901 64.916 19.117C65.245 18.563 65.399 17.965 65.318 17.343C65.1962 16.4473 65.0368 15.5572 64.84 14.675C64.7238 14.1784 64.5635 13.6931 64.361 13.225C64.161 12.745 63.78 12.718 63.505 13.165C63.369 13.385 63.309 13.665 63.268 13.925C63.2367 14.1663 63.225 14.4098 63.233 14.653V14.792L63.235 20.154C63.236 24.92 63.238 29.687 63.221 34.453C63.218 35.377 63.345 36.211 63.974 36.922C64.081 37.042 64.166 37.186 64.251 37.327L64.281 37.377C64.412 37.597 64.357 37.704 64.099 37.699C63.8003 37.6919 63.5021 37.6722 63.205 37.64C61.583 37.475 59.991 37.675 58.408 38.008L58.391 38.014C58.3879 38.0153 58.3845 38.016 58.381 38.016L58.321 38.011C58.205 38.0006 58.089 37.99 57.973 37.979C57.991 37.943 58.008 37.905 58.025 37.867C58.059 37.787 58.095 37.707 58.145 37.639C58.335 37.394 58.533 37.157 58.738 36.927C59.214 36.39 59.446 35.766 59.453 35.051L59.473 33.54C59.482 32.954 59.49 32.368 59.496 31.782C59.51 30.271 59.523 28.759 59.535 27.248C59.545 25.903 59.557 24.558 59.569 23.214C59.583 21.677 59.601 20.139 59.619 18.602L59.627 17.946C59.632 17.537 59.637 17.128 59.64 16.718C59.653 15.565 59.665 14.412 59.69 13.259C59.698 12.855 59.559 12.57 59.213 12.376C59.151 12.341 59.092 12.301 59.033 12.261L58.97 12.219C58.561 11.95 58.525 11.724 58.897 11.398C59.287 11.055 59.691 10.728 60.095 10.402L60.504 10.071L60.531 10.048C61.291 9.428 62.052 8.806 62.818 8.192C62.873 8.147 62.947 8.126 63.02 8.104C63.054 8.094 63.087 8.084 63.119 8.072C63.129 8.102 63.141 8.132 63.153 8.162C63.18 8.227 63.206 8.292 63.207 8.358C63.216 8.838 63.22 9.319 63.225 9.8L63.234 10.702C63.236 10.839 63.244 10.976 63.251 11.114L63.259 11.272L63.341 11.329L63.486 11.232C63.586 11.166 63.685 11.102 63.778 11.028C64.269 10.6375 64.7576 10.2441 65.244 9.848L65.257 9.838C65.351 9.763 65.445 9.689 65.542 9.62C65.96 9.323 66.112 9.348 66.302 9.814C66.685 10.748 67.047 11.69 67.408 12.631L67.442 12.719C67.832 13.729 68.214 14.74 68.597 15.752L68.685 15.986C68.843 16.404 68.748 16.749 68.4 17.044C67.788 17.565 67.181 18.092 66.574 18.619L65.663 19.409C65.5842 19.4793 65.4995 19.5428 65.41 19.599C65.243 19.702 65.035 19.77 64.919 19.584Z" fill="#F4F4F4"/>
</svg>
